<!-- <svg width="18" height="18" class="bi bi-eye-slash-fill" fill="#000" xmlns="http://www.w3.org/2000/svg">
  <path d="M10.79 12.912l-1.614-1.615a3.5 3.5 0 0 1-4.474-4.474l-2.06-2.06C.938 6.278 0 8 0 8s3 5.5 8 5.5a7.029 7.029 0 0 0 2.79-.588zM5.21 3.088A7.028 7.028 0 0 1 8 2.5c5 0 8 5.5 8 5.5s-.939 1.721-2.641 3.238l-2.062-2.062a3.5 3.5 0 0 0-4.474-4.474L5.21 3.089z"/>
  <path d="M5.525 7.646a2.5 2.5 0 0 0 2.829 2.829l-2.83-2.829zm4.95.708l-2.829-2.83a2.5 2.5 0 0 1 2.829 2.829z"/>
  <path fill-rule="evenodd" d="M13.646 14.354l-12-12 .708-.708 12 12-.708.708z"/>
</svg> -->

<svg xmlns="http://www.w3.org/2000/svg" width="24" height="24" fill="none">
<path fill-rule="evenodd" clip-rule="evenodd" d="M20.707 20.707a1 1 0 000-1.414l-16-16a1 1 0 00-1.414 1.414L5.205 6.62C2.785 8.338 1.5 10.683 1.5 12c0 2.25 3.75 7.5 10.5 7.5 1.916 0 3.59-.423 5.006-1.08l2.287 2.287a1 1 0 001.414 0zm-5.228-3.814l-1.774-1.774A4 4 0 018.38 9.794L6.644 8.058a9.332 9.332 0 00-1.09.84C4.28 10.034 3.5 11.417 3.5 12c0 .584.781 1.966 2.052 3.103C7.231 16.605 9.438 17.5 12 17.5a9.97 9.97 0 003.48-.607zm4.841-.815C21.751 14.61 22.5 13.006 22.5 12c0-2.25-3.75-7.5-10.5-7.5-1.043 0-2.015.125-2.912.346l1.721 1.72c.388-.043.785-.066 1.191-.066 2.562 0 4.77.895 6.448 2.397 1.27 1.137 2.052 2.52 2.052 3.103 0 .51-.596 1.63-1.595 2.663l1.415 1.415z" fill="#000"/>
</svg>
