
<svg xmlns="http://www.w3.org/2000/svg" width="38" height="38" 
viewBox="0 0 854 854">
 
  <path class="fil0" fill="#000" d="M495 488l14 -4c55,-6 89,54 61,98 -2,4 -10,12 -13,14 -5,4 -11,8 -16,10 -8,3 -21,7 -30,5 -49,-5 -73,-60 -47,-98 6,-9 21,-24 31,-24zm-68 -488c236,0 427,191 427,427 0,83 -24,160 -65,226 -4,-2 -9,-5 -11,-7 -3,0 -9,-4 -12,-5 -4,-2 -8,-3 -11,-5 -14,-6 -33,-11 -50,-13 -20,-3 -39,-2 -59,-3 2,-3 4,-5 6,-8 2,-3 4,-6 6,-8 2,-3 4,-5 6,-8 2,-3 4,-6 6,-8 3,-5 7,-11 10,-17 7,-13 14,-26 19,-41 3,-7 5,-15 8,-23 1,-4 5,-22 6,-24 0,-4 1,-7 1,-10 2,-17 4,-32 3,-50 0,-18 -3,-32 -5,-49 -1,-7 -3,-15 -5,-22 -2,-6 -5,-16 -6,-21 -2,-3 -3,-8 -4,-11 -1,-4 -3,-7 -4,-11 -1,-1 -10,-20 -10,-21 -1,-1 -1,0 -1,-1l-12 -21 -17 -23c-1,-2 -3,-4 -5,-6 -2,-2 -3,-3 -5,-5 -6,-8 -4,-5 -10,-10 -3,-3 -7,-8 -10,-10 -8,-7 -19,-16 -27,-22 -2,-1 -4,-2 -5,-4 -3,-2 -6,-4 -9,-6 -3,-2 -6,-4 -9,-6 -54,-31 -98,-41 -163,-40 -49,1 -94,16 -134,39 -15,8 -27,19 -35,23l-22 20c-8,8 -20,21 -27,30 -2,3 -4,6 -6,8l-10 16c-2,2 -2,4 -4,5l-15 29c-11,23 -21,59 -24,85 -1,5 0,17 -2,20l0 31c2,5 -1,45 28,110 3,6 5,10 8,15 2,4 6,10 8,14 7,9 10,15 19,26l16 18c12,14 26,25 41,37 4,3 9,7 13,9 4,2 7,5 11,7 27,16 56,28 87,35 59,12 124,8 179,-17 47,-21 88,-35 142,-31l30 5c3,-1 9,1 12,3 4,1 8,3 12,4 3,1 8,2 10,5 3,0 11,5 17,8 -78,100 -200,165 -337,165 -236,0 -427,-191 -427,-427 0,-236 191,-427 427,-427zm-33 573c-3,8 -8,13 -13,18 -3,3 -5,5 -8,7 -3,2 -6,4 -10,6 -15,8 -40,9 -55,1 -6,-2 -14,-9 -18,-12 -4,-4 -9,-11 -12,-17 -3,-6 -6,-16 -6,-24 0,-7 0,-14 2,-20 0,-1 1,-3 1,-3l1 -2c0,0 0,0 0,0 0,-4 4,-11 6,-14 3,-5 6,-7 9,-11 4,-4 18,-15 26,-14 1,-1 0,0 2,-1 1,0 1,0 2,0 2,0 3,-1 5,-1l14 0c3,0 8,1 11,2 9,0 22,10 27,14 4,3 16,19 16,25 1,1 0,-1 1,2 0,1 0,1 1,2 3,13 3,32 -3,42zm57 -142c-1,3 -2,5 -3,8 -1,2 -3,5 -4,6 -3,3 -8,6 -14,7 -26,3 -39,-26 -22,-43 6,-6 21,-11 31,-4 7,5 15,14 12,26zm181 -33c-1,5 -4,10 -6,13 -8,11 -18,21 -32,25 -5,4 -24,4 -31,3 -10,-2 -19,-6 -26,-11 -13,-9 -24,-25 -27,-45 -1,-12 1,-23 5,-32 2,-4 4,-8 7,-12 4,-5 4,-5 9,-10 11,-11 32,-21 53,-17 4,0 9,2 12,3 3,1 7,2 9,4l1 1c4,1 14,10 16,12 10,12 15,24 16,41 0,6 -1,20 -4,24zm-290 -10c-1,3 -1,8 -3,10 0,8 -12,21 -16,24 -4,3 -7,6 -12,9 -3,2 -10,6 -14,5 0,0 0,0 -1,0 -2,1 -1,1 -8,2l-12 1c-3,0 -8,0 -10,-1l-2 -1c-6,1 -20,-8 -24,-11 -7,-5 -12,-11 -16,-19 -9,-15 -12,-40 -3,-57 1,-5 7,-13 10,-16 4,-5 8,-8 14,-12 12,-8 24,-12 41,-10 4,0 20,4 22,7 9,3 28,22 30,33 3,2 4,12 5,17 1,7 0,12 -1,19zm22 -134c5,-19 17,-32 30,-40 13,-8 41,-12 56,-3 7,3 15,9 19,13 3,3 12,14 13,18 9,9 9,50 -1,56 0,3 -4,8 -5,10 -3,3 -5,5 -7,8 -3,3 -14,11 -18,11l-2 2c-1,1 -2,1 -3,1 -2,1 -3,1 -5,2 -7,1 -11,2 -19,1 -4,0 -14,-1 -16,-4 -9,-2 -21,-12 -25,-16 -3,-4 -6,-6 -9,-12 -2,-4 -5,-10 -6,-15 -3,-10 -3,-23 -1,-33z"/>

</svg>
